<?xml version="1.0" standalone="no"?>
<!DOCTYPE svg PUBLIC "-//W3C//DTD SVG 20010904//EN"
 "http://www.w3.org/TR/2001/REC-SVG-20010904/DTD/svg10.dtd">
<svg version="1.0" xmlns="http://www.w3.org/2000/svg"
 width="1080.000000pt" height="1080.000000pt" viewBox="0 0 1080.000000 1080.000000"
 preserveAspectRatio="xMidYMid meet">
<metadata>
Created by potrace 1.14, written by Peter Selinger 2001-2017
</metadata>
<g transform="translate(0.000000,1080.000000) scale(0.100000,-0.100000)"
fill="#000000" stroke="none">
<path d="M4269 6525 c-3 -2 -47 -5 -98 -6 -307 -6 -552 -153 -680 -408 -30
-58 -69 -173 -78 -226 -2 -16 -8 -46 -12 -66 -9 -41 -6 -277 4 -324 57 -273
182 -459 385 -573 130 -73 250 -98 456 -96 190 2 276 20 409 84 164 80 277
195 353 360 61 130 83 241 83 415 1 302 -120 551 -341 704 -116 80 -213 113
-370 126 -36 3 -74 8 -86 10 -12 3 -23 3 -25 0z m16 -326 c120 -31 213 -107
264 -213 25 -54 32 -73 48 -136 6 -23 17 -151 17 -195 0 -231 -93 -410 -249
-481 -79 -36 -127 -39 -208 -13 -59 19 -81 33 -133 84 -62 61 -94 115 -130
220 -26 77 -28 298 -3 394 26 101 65 175 124 236 55 57 95 81 165 101 58 16
58 16 105 3z"/>
<path d="M6647 6524 c-1 -1 -36 -4 -77 -8 -104 -9 -204 -38 -315 -92 l-54 -27
33 -38 c153 -180 148 -399 -15 -573 l-58 -63 32 -24 c123 -92 197 -122 409
-164 197 -40 281 -69 327 -113 87 -82 52 -218 -67 -268 -33 -13 -134 -30 -172
-28 -82 5 -169 32 -257 80 l-61 33 -12 -52 c-17 -82 -60 -157 -126 -223 l-62
-61 77 -26 c165 -56 285 -74 486 -71 112 2 172 10 295 38 51 11 187 86 236
130 98 86 151 203 158 346 7 138 -26 245 -105 334 -90 102 -215 154 -528 221
-232 49 -289 78 -311 156 -33 114 98 210 258 188 121 -17 190 -72 218 -175
l17 -64 111 5 c61 3 145 8 186 11 41 3 86 7 100 7 21 2 25 7 24 32 -3 161
-100 317 -243 394 -74 39 -213 79 -304 87 -67 5 -197 11 -200 8z"/>
<path d="M4879 6485 c0 0 -2 -20 -3 -45 -2 -43 0 -48 56 -103 175 -175 260
-400 261 -687 0 -261 -97 -500 -271 -662 -46 -43 -49 -51 -44 -110 2 -15 40
-16 495 -14 318 2 511 7 545 14 126 27 272 130 320 227 53 107 68 273 34 375
-30 89 -115 188 -198 230 l-46 22 50 29 c62 35 118 100 148 171 19 44 23 69
21 148 -2 85 -5 103 -34 161 -69 139 -187 212 -378 235 -46 6 -413 9 -956 9z
m905 -331 c55 -27 91 -96 82 -158 -9 -59 -57 -114 -111 -126 -22 -5 -94 -10
-161 -10 l-120 0 -19 73 c-10 39 -35 110 -57 156 -21 46 -38 85 -38 87 0 2 87
2 193 0 165 -2 198 -5 231 -22z m34 -627 c80 -52 103 -149 57 -243 -28 -58
-77 -95 -145 -110 -34 -7 -358 -14 -372 -7 -3 2 7 27 22 55 36 67 65 146 84
226 17 76 16 68 16 93 0 21 3 21 148 17 142 -3 150 -4 190 -31z"/>
<path d="M3413 4662 c-20 -3 -23 -9 -23 -47 0 -48 6 -53 68 -50 23 1 43 -3 43
-9 1 -6 3 -63 4 -126 1 -63 3 -122 4 -130 1 -12 17 -15 81 -15 l80 -1 1 36 c0
19 0 83 -1 141 l-1 107 30 -3 c31 -3 31 -2 31 46 0 32 -4 49 -12 50 -41 3
-287 3 -305 1z"/>
<path d="M4235 4664 c-56 -13 -109 -56 -126 -103 -6 -14 -12 -48 -14 -74 -10
-128 73 -210 209 -208 34 0 68 2 76 5 59 17 58 14 58 82 0 35 -3 64 -6 65 -74
8 -78 7 -91 -22 -15 -35 -45 -38 -62 -6 -7 12 -13 46 -13 74 -1 42 4 57 22 75
l23 23 25 -28 c20 -24 31 -28 62 -25 36 4 37 5 39 48 2 64 -4 78 -40 88 -33
10 -127 13 -162 6z"/>
<path d="M5381 4654 c-96 -41 -139 -167 -92 -269 36 -78 95 -108 212 -106 132
2 203 66 208 188 3 72 -25 134 -79 169 -36 24 -53 28 -128 30 -59 2 -98 -2
-121 -12z m125 -92 c48 -32 44 -155 -5 -182 -18 -9 -24 -6 -41 22 -43 71 -7
196 46 160z"/>
<path d="M6038 4648 c-66 -28 -108 -101 -103 -179 7 -92 40 -145 110 -175 57
-23 176 -20 231 7 52 25 79 61 65 87 -17 31 -20 115 -6 156 17 50 6 69 -61
102 -42 21 -64 25 -122 23 -43 -1 -88 -9 -114 -21z m148 -102 c19 -30 24 -90
11 -129 -12 -35 -52 -47 -72 -21 -36 48 -14 174 30 174 8 0 22 -11 31 -24z"/>
<path d="M6515 4664 c-84 -21 -134 -85 -140 -177 -5 -89 32 -158 101 -189 50
-22 78 -24 192 -13 l82 7 0 102 0 102 -87 0 -88 -1 0 -40 c0 -37 2 -39 30 -41
40 -2 39 -2 25 -19 -23 -27 -59 -18 -75 18 -34 82 26 210 65 136 10 -17 20
-20 58 -18 69 4 72 6 72 55 0 39 -3 45 -32 60 -31 16 -163 28 -203 18z"/>
<path d="M3780 4475 c0 -169 1 -185 18 -186 73 -3 325 1 329 5 3 3 -12 23 -34
45 -36 34 -46 39 -89 38 -44 0 -49 2 -55 26 -8 29 -8 28 50 31 38 1 43 8 46
51 l2 35 -49 0 c-45 0 -48 2 -48 25 0 27 2 28 73 26 26 -1 47 3 47 8 0 5 13
22 29 37 17 15 28 31 25 36 -3 4 -81 8 -175 8 l-169 0 0 -185z"/>
<path d="M4489 4515 c-1 -178 -1 -180 0 -207 1 -24 8 -25 147 -19 19 1 20 7
20 69 l-1 67 35 0 34 0 1 -65 c0 -61 1 -65 25 -70 14 -3 39 -4 55 -2 l30 4 0
184 0 185 -55 -3 -55 -3 1 -67 0 -67 -35 2 -35 2 -1 68 0 67 -82 0 -83 0 -1
-145z"/>
<path d="M4885 4475 c0 -118 3 -185 10 -186 16 -1 108 -1 130 0 17 1 20 8 19
51 -1 27 2 50 6 50 4 0 17 -22 30 -50 17 -36 29 -50 44 -50 12 -1 54 -2 94 -3
39 -1 72 1 72 5 0 4 -14 29 -31 57 -52 84 -49 193 6 259 39 47 33 52 -56 52
-77 0 -80 -1 -79 -22 1 -13 1 -39 1 -58 l-2 -35 -30 58 -29 57 -93 0 -92 0 0
-185z"/>
<path d="M5670 4657 c0 -2 16 -21 35 -43 57 -63 70 -147 36 -226 -10 -24 -31
-53 -46 -66 -15 -13 -24 -26 -21 -29 6 -7 286 -6 293 1 12 12 -62 81 -91 86
l-31 5 -1 135 0 135 -87 3 c-48 1 -87 1 -87 -1z"/>
<path d="M6810 4475 c0 -157 2 -185 15 -186 91 -5 86 -8 112 62 21 54 25 84
27 187 l2 122 -78 0 -78 0 0 -185z"/>
<path d="M7082 4633 c-25 -66 -112 -326 -112 -337 0 -7 17 -10 42 -9 24 0 62
2 85 2 39 1 43 4 51 34 7 28 13 32 44 34 34 2 38 -1 48 -32 7 -21 18 -35 28
-36 9 0 49 -1 88 -2 l71 -2 -62 185 -62 185 -105 3 -105 3 -11 -28z m114 -189
c-4 -9 -9 -15 -11 -12 -3 3 -3 13 1 22 4 9 9 15 11 12 3 -3 3 -13 -1 -22z"/>
</g>
</svg>
